<?xml version="1.0" standalone="no"?>
<!DOCTYPE svg PUBLIC "-//W3C//DTD SVG 20010904//EN"
 "http://www.w3.org/TR/2001/REC-SVG-20010904/DTD/svg10.dtd">
<svg version="1.0" xmlns="http://www.w3.org/2000/svg"
 width="1626.000000pt" height="1626.000000pt" viewBox="0 0 1626.000000 1626.000000"
 preserveAspectRatio="xMidYMid meet">
<metadata>
Created by potrace 1.14, written by Peter Selinger 2001-2017
</metadata>
<g transform="translate(0.000000,1626.000000) scale(0.100000,-0.100000)"
fill="#000000" stroke="none">
<path d="M6745 12869 c-60 -4 -121 -10 -135 -13 -14 -3 -42 -7 -63 -8 -21 -1
-40 -5 -43 -10 -3 -4 -16 -8 -29 -8 -24 0 -103 -17 -135 -28 -8 -3 -22 -6 -30
-7 -27 -3 -233 -77 -300 -107 -159 -72 -284 -142 -377 -210 -29 -21 -55 -38
-57 -38 -3 0 -16 -9 -28 -19 -13 -11 -34 -29 -48 -41 -83 -68 -111 -94 -193
-177 -101 -100 -95 -94 -184 -205 -35 -43 -63 -82 -63 -87 0 -5 -4 -11 -8 -13
-10 -4 -59 -75 -96 -138 -38 -66 -157 -308 -161 -328 -1 -9 -14 -46 -28 -82
-20 -54 -32 -91 -52 -160 -1 -3 -5 -23 -9 -45 -4 -22 -12 -53 -17 -70 -5 -16
-11 -46 -14 -65 -2 -19 -7 -46 -9 -60 -6 -31 -17 -122 -22 -175 -5 -58 -5
-304 1 -345 2 -19 6 -66 10 -104 3 -38 9 -87 14 -110 5 -23 15 -68 21 -101 23
-121 91 -333 155 -480 7 -16 19 -47 26 -67 7 -21 17 -38 21 -38 4 0 8 -9 8
-20 0 -11 4 -28 10 -38 20 -35 129 -276 130 -290 1 -4 9 -15 17 -24 9 -10 12
-18 7 -18 -5 0 -4 -4 1 -8 6 -4 26 -36 44 -72 37 -70 75 -141 128 -235 19 -33
37 -68 40 -77 3 -10 9 -18 14 -18 5 0 9 -4 9 -10 0 -5 36 -68 80 -141 44 -72
80 -133 80 -135 0 -3 5 -10 10 -17 6 -7 25 -34 42 -62 81 -128 269 -407 287
-426 11 -12 18 -25 16 -29 -2 -4 7 -18 20 -30 14 -13 25 -29 25 -36 0 -7 4
-14 8 -16 4 -1 30 -34 57 -73 27 -38 58 -79 67 -89 10 -11 18 -23 18 -26 0 -4
11 -20 25 -36 14 -16 38 -47 53 -69 15 -21 34 -47 42 -56 25 -29 36 -43 56
-74 10 -17 21 -32 24 -35 21 -18 100 -129 100 -139 0 -7 4 -10 8 -7 5 3 15 -6
22 -19 7 -14 17 -25 22 -25 4 0 8 -5 8 -10 0 -6 10 -22 23 -35 12 -13 32 -36
44 -52 51 -64 239 -290 258 -309 11 -12 40 -45 65 -75 81 -96 149 -157 168
-152 10 2 41 28 69 56 89 90 174 181 198 212 12 17 44 51 69 78 25 26 46 50
46 54 0 3 8 13 18 22 9 9 39 43 67 76 27 33 52 62 55 65 3 3 31 37 61 75 31
39 68 81 82 95 15 14 27 29 27 33 0 7 65 91 145 189 8 10 38 50 67 90 29 40
61 82 70 92 10 11 24 32 30 48 7 15 16 28 19 28 9 0 89 109 89 120 0 6 5 10
10 10 6 0 10 6 10 14 0 8 4 16 8 18 5 2 23 26 42 53 19 28 42 59 52 69 10 11
18 26 18 33 0 7 3 13 8 13 4 0 23 27 42 60 19 33 38 60 43 60 4 0 7 5 7 10 0
6 32 58 70 116 39 58 70 110 70 115 0 5 4 9 8 9 4 0 13 12 19 28 12 26 18 36
55 92 9 14 31 53 49 85 18 33 35 62 38 65 3 3 31 52 60 110 30 58 58 107 63
108 4 2 8 9 8 15 0 9 117 256 151 319 5 10 9 25 9 33 0 8 4 15 9 15 5 0 15 20
22 45 7 25 18 45 23 45 5 0 7 3 3 6 -3 4 3 24 14 45 11 22 17 39 13 39 -4 0
-2 6 4 13 11 12 57 136 69 182 2 11 8 29 13 40 9 21 33 93 36 110 1 6 12 46
24 90 21 77 43 177 54 240 3 17 7 41 10 55 9 53 19 127 22 185 5 78 5 310 0
355 -2 19 -7 60 -10 90 -4 30 -9 71 -13 90 -3 19 -7 44 -8 55 -10 87 -73 304
-121 413 -8 18 -14 37 -14 43 0 10 -65 143 -120 244 -38 72 -154 246 -186 280
-13 14 -21 25 -18 25 16 0 -214 236 -306 313 -47 40 -87 74 -90 77 -3 4 -39
28 -80 55 -41 27 -77 51 -80 55 -7 8 -41 28 -70 42 -14 7 -27 15 -30 19 -13
15 -265 130 -350 159 -52 17 -104 36 -115 40 -26 11 -194 53 -220 55 -11 1
-36 5 -55 9 -103 25 -372 36 -565 25z m320 -1111 c6 -3 30 -7 55 -9 25 -1 50
-6 55 -10 6 -4 24 -9 40 -12 68 -11 295 -107 303 -129 2 -4 9 -8 15 -8 43 0
309 -249 340 -317 6 -13 14 -23 18 -23 4 0 11 -9 14 -20 3 -11 12 -26 18 -33
7 -7 23 -35 36 -62 13 -28 28 -58 33 -68 33 -68 74 -210 86 -297 9 -68 8 -300
-1 -357 -44 -278 -198 -544 -417 -721 -36 -29 -70 -57 -77 -62 -7 -6 -14 -10
-17 -10 -3 0 -26 -14 -51 -31 -51 -34 -205 -103 -205 -91 0 4 -4 2 -8 -4 -7
-11 -110 -40 -177 -50 -22 -3 -43 -8 -47 -10 -9 -5 -278 -6 -303 -1 -11 3 -40
8 -65 12 -87 13 -196 50 -295 98 -55 27 -102 52 -105 56 -3 3 -17 12 -31 19
-14 8 -39 25 -54 38 -15 13 -31 24 -35 24 -3 0 -44 37 -90 83 -180 178 -304
423 -338 667 -8 56 -8 280 0 340 11 79 21 125 29 135 4 6 10 22 12 35 9 46 67
181 102 236 19 30 35 59 35 64 0 6 5 10 10 10 6 0 10 6 10 13 0 7 8 20 18 29
9 8 28 30 42 49 122 162 409 347 593 384 10 3 26 6 35 9 17 5 42 10 117 22 22
3 42 8 44 10 6 6 246 -1 256 -8z"/>
<path d="M1217 6742 c-9 -2 -17 -9 -18 -15 -5 -71 0 -1829 5 -1834 8 -8 461
-12 484 -5 9 3 12 77 12 325 0 187 4 317 9 312 8 -9 38 -119 47 -170 2 -11 20
-83 39 -160 20 -77 38 -151 41 -165 2 -14 7 -32 10 -40 3 -8 8 -28 11 -45 10
-63 -2 -60 266 -60 135 0 249 4 253 8 7 6 -88 348 -119 432 -6 17 -12 35 -13
40 -2 16 -35 126 -48 160 -6 17 -12 37 -13 45 -2 14 -16 61 -70 237 l-29 92
62 186 c34 102 62 187 62 188 0 1 3 9 6 17 95 282 137 426 129 439 -8 13 -43
15 -227 14 -119 0 -219 -2 -221 -5 -5 -5 -85 -266 -155 -505 -11 -40 -25 -73
-30 -73 -6 0 -10 110 -10 284 0 202 -3 287 -11 292 -12 7 -439 12 -472 6z"/>
<path d="M9556 6742 c-2 -1 -36 -5 -77 -8 -105 -8 -166 -30 -215 -79 -47 -47
-64 -102 -64 -203 0 -69 -5 -77 -49 -80 -19 -2 -37 -4 -39 -7 -2 -2 -4 -53 -4
-114 0 -117 8 -143 42 -134 47 12 47 21 47 -615 0 -329 2 -603 5 -608 5 -7
399 -11 465 -5 10 1 13 134 15 614 l3 612 44 2 c24 1 47 7 51 13 8 13 6 227
-2 235 -3 4 -39 7 -80 7 -104 0 -110 3 -104 42 7 46 16 66 30 67 6 1 42 3 80
4 38 2 72 8 76 14 9 15 6 229 -4 238 -6 7 -214 12 -220 5z"/>
<path d="M9921 6730 c-9 -19 -8 -1821 1 -1835 7 -12 463 -14 474 -2 9 9 10
1804 1 1832 -7 19 -16 20 -238 20 -195 0 -232 -2 -238 -15z"/>
<path d="M5037 6612 c-18 -4 -19 -9 -19 -149 0 -46 -3 -84 -7 -84 -3 -1 -23
-3 -44 -4 -20 -1 -40 -5 -44 -8 -7 -8 -8 -235 -1 -243 3 -3 24 -5 47 -6 23 0
42 -3 43 -7 0 -3 2 -225 3 -492 1 -267 5 -503 9 -525 19 -99 79 -161 186 -193
35 -11 380 -22 413 -13 15 4 17 18 17 121 0 78 -4 121 -12 129 -7 7 -30 12
-52 12 -76 0 -71 -34 -71 492 l0 473 46 1 c25 0 51 4 57 8 16 10 17 232 1 242
-6 3 -32 7 -57 8 l-47 1 -3 110 c-1 60 -7 114 -12 119 -8 8 -414 15 -453 8z"/>
<path d="M2818 6418 c-181 -48 -277 -133 -328 -292 -14 -45 -21 -304 -8 -312
12 -8 425 -7 438 1 6 4 10 63 10 154 0 158 4 171 51 171 42 0 50 -20 53 -132
5 -150 2 -156 -96 -205 -46 -23 -118 -55 -161 -72 -179 -71 -247 -118 -280
-190 -18 -41 -20 -68 -21 -241 -1 -163 1 -204 16 -249 26 -78 61 -119 132
-152 145 -67 294 -51 392 43 34 32 42 29 42 -15 0 -15 3 -31 6 -35 9 -9 415
-10 441 -1 20 6 20 15 19 520 -1 448 -6 628 -18 696 -2 10 -7 37 -11 60 -3 23
-13 47 -21 54 -8 6 -14 17 -14 24 0 20 -94 106 -144 131 -78 40 -161 56 -299
58 -97 2 -144 -2 -199 -16z m222 -1030 c0 -195 -7 -230 -47 -236 -12 -2 -31 6
-42 17 -19 19 -21 33 -21 141 0 86 4 131 16 158 15 36 70 102 86 102 4 0 8
-82 8 -182z"/>
<path d="M4390 6430 c-52 -14 -116 -49 -144 -79 -17 -17 -33 -31 -37 -31 -4 0
-6 18 -5 40 2 23 -1 43 -7 47 -12 7 -467 6 -474 -1 -9 -9 -7 -1505 1 -1513 8
-9 462 -11 470 -2 3 2 6 281 8 618 3 593 4 613 22 627 11 8 30 14 42 14 50 0
49 10 50 -642 0 -334 4 -611 8 -615 7 -8 429 -12 459 -5 18 4 18 32 14 636 -2
347 -7 649 -11 671 -21 112 -88 191 -190 225 -44 14 -168 20 -206 10z"/>
<path d="M6175 6433 c-126 -20 -191 -45 -264 -103 -93 -74 -142 -178 -156
-331 -8 -86 -9 -644 -1 -736 20 -243 161 -377 419 -399 248 -21 408 23 516
142 70 77 104 154 118 268 9 78 10 661 1 746 -21 206 -132 334 -342 394 -53
16 -237 27 -291 19z m150 -317 c9 -23 12 -142 11 -482 -1 -489 -1 -484 -56
-484 -54 0 -55 10 -55 499 0 403 2 449 17 473 25 38 66 35 83 -6z"/>
<path d="M7400 6429 c-111 -14 -208 -59 -279 -131 -39 -40 -100 -138 -85 -138
4 0 2 -6 -4 -12 -11 -14 -18 -47 -30 -138 -9 -67 -9 -781 1 -796 3 -6 9 -26
12 -45 8 -45 60 -147 93 -182 123 -132 463 -171 689 -80 118 47 231 190 248
313 3 25 8 58 11 74 4 16 6 183 6 370 0 268 -3 356 -15 412 -16 76 -42 134
-75 172 -12 13 -22 27 -24 31 -6 15 -101 82 -146 102 -101 47 -261 66 -402 48z
m171 -301 c8 -16 12 -142 11 -452 0 -237 -1 -447 -1 -467 -1 -46 -36 -74 -74
-60 -36 14 -40 59 -42 481 -1 371 5 480 26 507 18 21 67 16 80 -9z"/>
<path d="M8940 6430 c-19 -4 -53 -16 -75 -27 -42 -22 -125 -98 -125 -114 0 -6
-4 -8 -9 -4 -6 3 -9 28 -7 54 2 27 0 55 -5 62 -6 10 -59 13 -229 12 -122 -1
-225 -5 -228 -8 -9 -9 -10 -1486 -1 -1505 6 -13 41 -15 227 -15 122 0 224 4
229 8 4 5 8 156 9 335 1 303 7 484 18 539 14 68 73 104 197 119 30 3 56 8 58
10 3 3 5 478 2 520 -1 17 -21 21 -61 14z"/>
<path d="M11030 6433 c-115 -13 -230 -60 -296 -120 -36 -33 -93 -117 -101
-148 -36 -141 -38 -174 -37 -526 1 -388 7 -446 55 -539 31 -58 91 -130 108
-130 6 0 11 -4 11 -9 0 -12 95 -57 159 -77 42 -13 180 -28 241 -27 100 2 238
38 286 75 113 85 178 184 201 307 8 45 10 270 2 282 -5 9 -61 12 -220 11 -117
-1 -215 -4 -218 -8 -3 -3 -6 -53 -7 -112 -1 -194 -16 -256 -64 -262 -69 -10
-77 17 -77 248 0 103 2 193 4 200 4 9 72 12 293 12 l288 0 5 23 c6 29 1 308
-7 362 -18 115 -34 166 -73 228 -27 43 -74 93 -108 114 -57 36 -118 63 -174
78 -57 15 -211 25 -271 18z m137 -305 c4 -7 9 -66 11 -130 l4 -118 -51 0 -51
0 0 99 c0 54 3 113 6 130 6 27 11 31 40 31 18 0 36 -6 41 -12z"/>
<path d="M11803 6412 c-21 -3 -30 -21 -23 -47 2 -5 9 -32 17 -60 8 -27 16 -58
18 -69 3 -10 12 -44 21 -75 9 -31 18 -63 20 -71 11 -44 37 -140 72 -265 38
-138 39 -141 25 -200 -8 -33 -17 -70 -19 -82 -2 -12 -9 -34 -14 -48 -5 -14 -7
-25 -5 -25 2 0 0 -11 -5 -25 -5 -14 -12 -36 -14 -48 -2 -12 -12 -51 -21 -87
-9 -36 -18 -72 -20 -80 -8 -38 -19 -80 -36 -140 -10 -36 -20 -78 -23 -95 -3
-16 -10 -45 -15 -62 -7 -23 -6 -35 2 -40 13 -8 374 -11 387 -3 4 3 11 21 14
41 3 20 8 42 10 50 3 8 7 30 10 50 3 20 8 42 10 50 3 8 8 31 11 53 3 21 7 41
9 45 3 4 7 29 10 56 5 42 23 84 27 62 1 -4 2 -10 3 -14 1 -5 5 -24 9 -43 4
-19 9 -44 11 -55 46 -226 58 -281 66 -290 10 -12 444 -14 456 -3 6 6 -14 84
-57 223 -10 33 -25 87 -34 120 -9 33 -18 67 -20 75 -2 8 -25 89 -50 180 -58
205 -56 192 -44 236 6 20 13 46 16 58 2 11 8 37 13 56 4 19 29 116 55 215 25
99 48 188 50 198 2 10 7 27 10 37 3 10 8 27 10 37 17 81 17 83 4 83 -8 1 -103
2 -211 3 l-196 2 -10 -35 c-12 -40 -48 -217 -57 -274 -3 -21 -7 -42 -10 -46
-2 -3 -5 -24 -7 -44 -4 -68 -16 -56 -33 34 -6 32 -32 159 -38 185 -3 11 -10
53 -18 93 -7 41 -18 76 -25 79 -15 6 -327 10 -361 5z"/>
</g>
</svg>
